<svg fill="none" xmlns="http://www.w3.org/2000/svg" viewBox="0 0 200 66" height="36" width="120">
  <path d="M60.328.616c-.752-.753-1.983-.753-2.667 0L56.566 1.71c-.752.752-.752 1.984 0 2.668l17.51 17.51-17.578 17.578c-.752.753-.752 1.984 0 2.668l1.094 1.094c.753.753 1.984.753 2.668 0l21.272-21.272L60.328.616Z" fill="#FAA74A"></path>
  <path d="M99.18 1.71 98.084.616c-.752-.753-1.984-.753-2.668 0l-14.91 14.842 3.83 3.83L99.179 4.447c.753-.82.753-1.984 0-2.736ZM177.428 19.425s-1.984-.478-3.146-.889c-3.489-1.163-6.704-3.078-6.704-6.566 0-3.967 3.42-6.635 8.482-6.635 3.352 0 6.019.958 7.866 2.873l.616.615c.752.753 1.983.753 2.667 0l1.094-1.094c.753-.752.753-1.983 0-2.667l-.615-.616c-2.941-2.804-7.045-4.31-11.696-4.31-4.241 0-7.593 1.095-10.397 3.42-2.668 2.258-3.967 5.13-3.967 8.62 0 8.412 7.866 10.464 14.774 12.311l.205.068c6.088 1.437 9.166 3.83 9.166 7.182 0 4.173-3.489 6.703-9.371 6.703-3.694 0-6.908-1.23-9.097-3.42l-.684-.684c-.753-.752-1.984-.752-2.668 0l-1.368 1.369c-.752.752-.752 1.983 0 2.667l.684.684c3.147 3.146 7.729 4.788 13.133 4.788 4.514 0 8.14-1.094 11.081-3.352 2.804-2.188 4.24-5.13 4.24-8.755.137-7.866-6.703-10.602-14.295-12.312ZM99.18 42.134l-1.095 1.094c-.752.753-1.984.753-2.668 0l-14.91-14.91 3.83-3.831L99.179 39.33c.753.82.753 1.983 0 2.804ZM128.249 5.404c9.097 0 16.484 7.387 16.484 16.484 0 9.097-7.387 16.484-16.484 16.484-9.097 0-16.484-7.387-16.484-16.484 0-9.097 7.455-16.484 16.484-16.484Zm0-5.404c-12.038 0-21.888 9.781-21.888 21.888 0 12.038 9.781 21.888 21.888 21.888 12.038 0 21.888-9.782 21.888-21.888C150.137 9.85 140.356 0 128.249 0ZM41.86 0h-1.573c-1.026 0-1.915.82-1.915 1.915v5.609A21.831 21.831 0 0 0 21.888 0C9.85 0 0 9.781 0 21.888c0 12.038 9.781 21.888 21.888 21.888a21.83 21.83 0 0 0 16.484-7.524v5.608c0 1.026.82 1.916 1.915 1.916h1.573c1.026 0 1.916-.821 1.916-1.916V1.915C43.776.89 42.955 0 41.86 0Zm-3.488 22.025c-.068 9.097-7.387 16.416-16.484 16.416-9.097 0-16.484-7.388-16.484-16.485S12.79 5.472 21.888 5.472c9.097 0 16.416 7.319 16.484 16.416v.137ZM195.349 2.394c0-1.368 1.026-2.394 2.325-2.394C199.042 0 200 1.026 200 2.394s-1.026 2.394-2.326 2.394c-1.368-.068-2.325-1.094-2.325-2.394Zm4.377 0c0-1.231-.82-2.12-2.052-2.12-1.231 0-2.052.889-2.052 2.12s.821 2.12 2.052 2.12c1.232 0 2.052-.889 2.052-2.12Zm-2.394 1.231h-.273V1.163c.205-.069.41-.069.547-.069.616 0 .958.274.958.821 0 .41-.274.616-.548.753l.821.957h-.41l-.753-.889h-.342v.89Zm0-1.231h.274c.342 0 .616-.137.616-.547 0-.342-.274-.479-.616-.479h-.274v1.026ZM58.071 63.133l-.752 2.052h-1.574l3.42-8.824h1.847l3.42 8.824h-1.641l-.753-2.052h-3.967Zm1.984-5.336-1.505 4.104h3.01l-1.505-4.104ZM67.1 56.43a25.025 25.025 0 0 1 2.326-.137c3.488 0 5.198 1.846 5.198 4.377 0 2.805-1.71 4.72-5.13 4.72-.89 0-1.71-.069-2.394-.137V56.43Zm1.505 7.523c.342.069.684.069 1.026.069 2.052 0 3.42-1.095 3.42-3.352 0-1.915-1.231-3.01-3.557-3.01-.274 0-.616 0-.89.07v6.224ZM79.822 65.253l-3.352-8.824h1.642l2.668 7.32 2.599-7.32h1.641l-3.351 8.824h-1.847ZM89.193 65.253h-1.505v-8.824h1.505v8.824ZM92.408 63.201c.683.547 1.368.89 2.325.89.89 0 1.642-.343 1.642-1.232 0-.82-.616-1.094-1.642-1.436-1.71-.547-2.462-1.232-2.462-2.668 0-1.573 1.3-2.462 2.804-2.462.958 0 1.642.273 2.257.684v1.505c-.684-.548-1.368-.89-2.188-.89-.821 0-1.369.48-1.369 1.163 0 .684.48 1.026 1.642 1.368 1.71.547 2.462 1.231 2.462 2.736 0 1.779-1.368 2.6-3.078 2.6-.957 0-1.778-.274-2.325-.685v-1.573h-.068ZM104.993 56.224c2.531 0 4.583 1.847 4.583 4.583s-2.052 4.583-4.583 4.583-4.583-1.847-4.583-4.583c0-2.668 2.052-4.583 4.583-4.583Zm0 1.368c-1.71 0-3.01 1.232-3.01 3.215 0 1.915 1.3 3.215 3.01 3.215 1.71 0 3.01-1.231 3.01-3.215 0-1.915-1.3-3.215-3.01-3.215ZM114.227 65.253h-1.505V56.43a20.847 20.847 0 0 1 2.189-.137c2.325 0 3.557 1.026 3.557 2.873 0 1.3-.753 2.257-1.779 2.599l2.668 3.488h-1.847l-2.326-3.146h-1.025v3.146h.068Zm0-4.377h.752c1.231 0 1.984-.548 1.984-1.642 0-1.026-.684-1.573-2.052-1.573h-.684v3.215ZM125.787 63.201c.684.547 1.368.89 2.325.89.889 0 1.642-.343 1.642-1.232 0-.82-.616-1.094-1.642-1.436-1.71-.547-2.462-1.232-2.462-2.668 0-1.573 1.299-2.462 2.804-2.462.958 0 1.642.273 2.257.684v1.505c-.684-.548-1.368-.89-2.188-.89-.821 0-1.368.48-1.368 1.163 0 .684.478 1.026 1.641 1.368 1.71.547 2.463 1.231 2.463 2.736 0 1.779-1.368 2.6-3.078 2.6-.958 0-1.779-.274-2.326-.685v-1.573h-.068ZM139.808 63.885v1.368h-5.472v-8.824h5.404v1.368h-3.899v2.395h3.625v1.3h-3.625v2.462h3.967v-.069ZM144.665 65.253h-1.505V56.43a20.847 20.847 0 0 1 2.189-.137c2.325 0 3.556 1.026 3.556 2.873 0 1.3-.752 2.257-1.778 2.599l2.668 3.488h-1.847l-2.326-3.146h-1.026v3.146h.069Zm0-4.377h.752c1.231 0 1.984-.548 1.984-1.642 0-1.026-.684-1.573-2.052-1.573h-.684v3.215ZM154.583 65.253l-3.352-8.824h1.642l2.667 7.32 2.6-7.32h1.641l-3.351 8.824h-1.847ZM163.885 65.253h-1.505v-8.824h1.505v8.824ZM174.077 58.55c-.616-.547-1.437-.89-2.463-.89-1.71 0-3.009 1.3-3.009 3.215 0 1.916 1.299 3.215 3.009 3.215 1.026 0 1.779-.273 2.463-.889v1.642c-.753.478-1.642.684-2.531.684-2.736 0-4.514-1.847-4.514-4.583s1.915-4.583 4.514-4.583c.889 0 1.71.205 2.462.616v1.573h.069ZM182.832 63.885v1.368h-5.472v-8.824h5.403v1.368h-3.899v2.395h3.626v1.3h-3.626v2.462h3.968v-.069ZM185.704 63.201c.684.547 1.368.89 2.326.89.889 0 1.641-.343 1.641-1.232 0-.82-.615-1.094-1.641-1.436-1.71-.547-2.462-1.232-2.462-2.668 0-1.573 1.299-2.462 2.804-2.462.957 0 1.641.273 2.257.684v1.505c-.684-.548-1.368-.89-2.189-.89s-1.368.48-1.368 1.163c0 .684.479 1.026 1.642 1.368 1.71.547 2.462 1.231 2.462 2.736 0 1.779-1.368 2.6-3.078 2.6-.957 0-1.778-.274-2.325-.685v-1.573h-.069Z" fill="#1E3860"></path>
</svg>
